<svg width="25" height="25" viewBox="0 0 25 25" fill="none" xmlns="http://www.w3.org/2000/svg">
<path d="M16 14.5H15.21L14.93 14.23C15.9439 13.054 16.5011 11.5527 16.5 10C16.5 8.71442 16.1188 7.45772 15.4046 6.3888C14.6903 5.31988 13.6752 4.48676 12.4874 3.99479C11.2997 3.50282 9.99279 3.37409 8.73192 3.6249C7.47104 3.8757 6.31285 4.49477 5.40381 5.40381C4.49477 6.31285 3.8757 7.47104 3.6249 8.73192C3.37409 9.99279 3.50282 11.2997 3.99479 12.4874C4.48676 13.6752 5.31988 14.6903 6.3888 15.4046C7.45772 16.1188 8.71442 16.5 10 16.5C11.61 16.5 13.09 15.91 14.23 14.93L14.5 15.21V16L19.5 20.99L20.99 19.5L16 14.5ZM10 14.5C7.51 14.5 5.5 12.49 5.5 10C5.5 7.51 7.51 5.5 10 5.5C12.49 5.5 14.5 7.51 14.5 10C14.5 12.49 12.49 14.5 10 14.5Z" fill="#101828" fill-opacity="0.38"/>
</svg>
