<svg width="131" height="18" viewBox="0 0 131 18" fill="none" xmlns="http://www.w3.org/2000/svg">
<path d="M5.68652 1.63246C5.92198 1.01141 6.51695 0.600672 7.18114 0.600672C7.84721 0.600672 8.44346 1.01371 8.67757 1.63729L13.785 15.2417C14.1185 16.1299 13.4619 17.0778 12.5131 17.0778C11.938 17.0778 11.4252 16.7157 11.2328 16.1737L10.8845 15.1927C10.4832 14.0626 9.41395 13.3076 8.21478 13.3076H5.98237C4.78944 13.3076 3.728 14.0647 3.33967 15.1927L2.99782 16.1856C2.81402 16.7194 2.31167 17.0778 1.74708 17.0778C0.821478 17.0778 0.182078 16.1515 0.510201 15.2861L5.68652 1.63246ZM7.09818 10.7941C8.1941 10.7941 8.96923 9.72226 8.62595 8.68149C8.14147 7.21262 6.06566 7.20697 5.57318 8.67318C5.22307 9.71555 5.99858 10.7941 7.09818 10.7941Z" fill="#647B64"/>
<path d="M14.624 2.27598C14.4076 1.42653 15.0494 0.600672 15.926 0.600672C16.5522 0.600672 17.0954 1.03326 17.2355 1.64358L19.77 12.6824C19.7727 12.6942 19.7832 12.7025 19.7952 12.7025C19.807 12.7025 19.8173 12.6946 19.8203 12.6832L22.6465 1.87301C22.8425 1.1235 23.5196 0.600672 24.2943 0.600672C25.0719 0.600672 25.7509 1.12746 25.944 1.88078L28.7139 12.6831C28.7168 12.6945 28.7271 12.7025 28.7389 12.7025C28.7509 12.7025 28.7614 12.6942 28.7641 12.6825L31.3622 1.60917C31.5009 1.01836 32.0279 0.600672 32.6348 0.600672C33.4875 0.600672 34.1119 1.40409 33.9014 2.23046L30.4264 15.8687C30.2451 16.58 29.6046 17.0778 28.8706 17.0778C28.1464 17.0778 27.5119 16.593 27.3215 15.8943L24.2825 4.73951C24.2794 4.72796 24.2689 4.71994 24.2569 4.71994C24.2449 4.71994 24.2344 4.72796 24.2313 4.73951L21.1923 15.8943C21.0019 16.593 20.3674 17.0778 19.6432 17.0778C18.9092 17.0778 18.2687 16.58 18.0874 15.8687L14.624 2.27598Z" fill="#647B64"/>
<path d="M36.0184 3.60067C36.0184 1.94382 37.3615 0.600672 39.0184 0.600672H44.2505C44.9574 0.600672 45.5305 1.17375 45.5305 1.88067C45.5305 2.5876 44.9574 3.16067 44.2505 3.16067H40.6684C39.5116 3.16067 38.5739 4.09843 38.5739 5.25522C38.5739 6.412 39.5116 7.34976 40.6684 7.34976H43.932C44.6132 7.34976 45.1654 7.902 45.1654 8.58322C45.1654 9.26444 44.6132 9.81667 43.932 9.81667H40.9011C39.6158 9.81667 38.5739 10.8586 38.5739 12.1439C38.5739 13.4293 39.6158 14.4712 40.9011 14.4712H44.5923C45.3121 14.4712 45.8956 15.0547 45.8956 15.7745C45.8956 16.4943 45.3121 17.0778 44.5923 17.0778H39.0184C37.3615 17.0778 36.0184 15.7346 36.0184 14.0778V3.60067Z" fill="#647B64"/>
<path d="M56.6798 2.83507C56.2045 3.43359 55.239 3.40073 54.563 3.04431C54.0762 2.76503 53.5827 2.6254 53.0824 2.6254C52.7849 2.6254 52.4875 2.67194 52.19 2.76504C51.8925 2.84261 51.6221 2.97449 51.3787 3.16067C51.1354 3.33134 50.9326 3.56407 50.7703 3.85885C50.6216 4.13813 50.5472 4.47946 50.5472 4.88285C50.5472 5.25522 50.6148 5.57328 50.75 5.83704C50.8852 6.10079 51.0678 6.32576 51.2976 6.51194C51.541 6.69813 51.8317 6.86104 52.1697 7.00067C52.5078 7.14031 52.8796 7.27995 53.2852 7.41958C53.7449 7.59025 54.2182 7.78419 54.7049 8.0014C55.2052 8.21861 55.6582 8.50564 56.0638 8.86249C56.483 9.21934 56.821 9.66928 57.0779 10.2123C57.3483 10.7553 57.4835 11.4302 57.4835 12.237C57.4835 13.1214 57.3416 13.8972 57.0576 14.5643C56.7737 15.2159 56.3951 15.759 55.9218 16.1934C55.4486 16.6278 54.8942 16.9536 54.2587 17.1709C53.6233 17.3881 52.954 17.4967 52.2509 17.4967C51.3179 17.4967 50.4052 17.3027 49.5128 16.9149C48.9476 16.6594 48.4475 16.3292 48.0125 15.9243C47.5701 15.5126 47.6209 14.8265 48.0333 14.3848C48.5965 13.7816 49.5911 13.8955 50.2778 14.353C50.3647 14.4109 50.4545 14.4658 50.5472 14.5178C51.1421 14.8436 51.7235 15.0065 52.2914 15.0065C52.5889 15.0065 52.8931 14.9677 53.2041 14.8901C53.5151 14.797 53.7923 14.6496 54.0356 14.4479C54.2925 14.2462 54.4954 13.998 54.6441 13.7032C54.8064 13.3929 54.8875 13.0128 54.8875 12.5629C54.8875 12.1284 54.7996 11.7716 54.6238 11.4923C54.448 11.1975 54.2114 10.9493 53.914 10.7476C53.6165 10.5304 53.2649 10.3442 52.8593 10.189C52.4537 10.0339 52.0278 9.87098 51.5816 9.70031C51.1489 9.54516 50.7162 9.35897 50.2835 9.14176C49.8509 8.92455 49.4587 8.63752 49.1072 8.28067C48.7692 7.92382 48.492 7.4894 48.2756 6.9774C48.0593 6.44988 47.9511 5.79825 47.9511 5.02249C47.9511 4.18467 48.0999 3.46322 48.3973 2.85813C48.7083 2.25304 49.1072 1.75655 49.594 1.36867C50.0942 0.965278 50.6554 0.670489 51.2773 0.484307C51.9128 0.282611 52.5551 0.181763 53.2041 0.181763C53.9342 0.181763 54.6711 0.329157 55.4148 0.623944C55.8445 0.791223 56.2415 1.00596 56.6058 1.26816C57.0883 1.61536 57.1081 2.29563 56.7385 2.76115L56.6798 2.83507Z" fill="#647B64"/>
<path d="M59.3539 8.79267C59.3539 7.47389 59.5432 6.28698 59.9218 5.23195C60.3139 4.1614 60.848 3.25376 61.524 2.50903C62.2136 1.76431 63.0249 1.19025 63.9578 0.786853C64.9043 0.383459 65.9319 0.181763 67.0406 0.181763C68.1629 0.181763 69.1973 0.383459 70.1438 0.786853C71.0902 1.19025 71.9083 1.76431 72.5978 2.50903C73.2874 3.25376 73.8215 4.1614 74.2001 5.23195C74.5922 6.28698 74.7883 7.47389 74.7883 8.79267C74.7883 10.0804 74.5922 11.2596 74.2001 12.3301C73.8215 13.3852 73.2874 14.3006 72.5978 15.0763C71.9083 15.8366 71.0902 16.4339 70.1438 16.8683C69.1973 17.2872 68.1629 17.4967 67.0406 17.4967C65.9319 17.4967 64.9043 17.2872 63.9578 16.8683C63.0249 16.4339 62.2136 15.8366 61.524 15.0763C60.848 14.3006 60.3139 13.3852 59.9218 12.3301C59.5432 11.2596 59.3539 10.0804 59.3539 8.79267ZM62.1325 8.79267C62.1325 9.67704 62.2474 10.4916 62.4773 11.2363C62.7206 11.9655 63.0587 12.6016 63.4914 13.1447C63.9375 13.6877 64.4581 14.1144 65.053 14.4247C65.6615 14.7195 66.3308 14.8669 67.0609 14.8669C67.7911 14.8669 68.4604 14.7195 69.0688 14.4247C69.6773 14.1144 70.1978 13.6877 70.6305 13.1447C71.0767 12.6016 71.4147 11.9655 71.6446 11.2363C71.888 10.4916 72.0097 9.67704 72.0097 8.79267C72.0097 7.93934 71.888 7.14807 71.6446 6.41885C71.4147 5.68964 71.0835 5.05352 70.6508 4.51049C70.2181 3.96746 69.6976 3.54079 69.0891 3.23049C68.4807 2.92019 67.8046 2.76504 67.0609 2.76504C66.3173 2.76504 65.6412 2.92019 65.0328 3.23049C64.4378 3.54079 63.924 3.96746 63.4914 4.51049C63.0587 5.05352 62.7206 5.68964 62.4773 6.41885C62.2474 7.14807 62.1325 7.93934 62.1325 8.79267Z" fill="#647B64"/>
<path d="M77.2552 2.90915C77.2552 1.63421 78.2887 0.600672 79.5637 0.600672C80.5685 0.600672 81.4579 1.25064 81.7631 2.20799L84.9733 12.2779C84.9788 12.2952 84.9948 12.3069 85.0129 12.3069C85.031 12.3069 85.0471 12.2951 85.0525 12.2778L88.2237 2.22085C88.5278 1.25646 89.4222 0.600672 90.4334 0.600672C91.7131 0.600672 92.7504 1.63801 92.7504 2.91763V15.8102C92.7504 16.5102 92.1829 17.0778 91.4828 17.0778C90.7827 17.0778 90.2152 16.5102 90.2152 15.8102V3.85911C90.2152 3.84612 90.2046 3.83558 90.1916 3.83558C90.1815 3.83558 90.1725 3.8421 90.1693 3.85175L86.0926 16.232C85.9264 16.7367 85.455 17.0778 84.9236 17.0778C84.3903 17.0778 83.9177 16.7343 83.7531 16.2271L79.7348 3.85182C79.7317 3.84214 79.7226 3.83558 79.7125 3.83558C79.6995 3.83558 79.689 3.8461 79.689 3.85907V15.8609C79.689 16.5329 79.1442 17.0778 78.4721 17.0778C77.8 17.0778 77.2552 16.5329 77.2552 15.8609V2.90915Z" fill="#647B64"/>
<path d="M95.9127 3.60067C95.9127 1.94382 97.2559 0.600672 98.9127 0.600672H104.145C104.852 0.600672 105.425 1.17375 105.425 1.88067C105.425 2.5876 104.852 3.16067 104.145 3.16067H100.563C99.406 3.16067 98.4682 4.09843 98.4682 5.25522C98.4682 6.412 99.406 7.34976 100.563 7.34976H103.826C104.508 7.34976 105.06 7.902 105.06 8.58322C105.06 9.26444 104.508 9.81667 103.826 9.81667H100.796C99.5102 9.81667 98.4682 10.8586 98.4682 12.1439C98.4682 13.4293 99.5102 14.4712 100.796 14.4712H104.487C105.206 14.4712 105.79 15.0547 105.79 15.7745C105.79 16.4943 105.206 17.0778 104.487 17.0778H98.9127C97.2559 17.0778 95.9127 15.7346 95.9127 14.0778V3.60067Z" fill="#647B64"/>
<path d="M124.801 11.0269C124.801 12.0198 124.652 12.9197 124.355 13.7265C124.057 14.5178 123.652 15.1927 123.138 15.7512C122.624 16.3098 122.016 16.7442 121.313 17.0545C120.609 17.3493 119.846 17.4967 119.021 17.4967C118.196 17.4967 117.432 17.3493 116.729 17.0545C116.026 16.7442 115.411 16.3098 114.883 15.7512C114.369 15.1927 113.964 14.5178 113.666 13.7265C113.382 12.9197 113.24 12.0198 113.24 11.0269V1.87842C113.24 1.17274 113.813 0.600672 114.518 0.600672C115.224 0.600672 115.796 1.17274 115.796 1.87842V10.9105C115.796 11.3915 115.85 11.8724 115.958 12.3534C116.066 12.8189 116.242 13.2378 116.486 13.6101C116.742 13.9825 117.074 14.285 117.479 14.5178C117.898 14.7505 118.412 14.8669 119.021 14.8669C119.629 14.8669 120.136 14.7505 120.542 14.5178C120.961 14.285 121.292 13.9825 121.536 13.6101C121.793 13.2378 121.975 12.8189 122.083 12.3534C122.191 11.8724 122.246 11.3915 122.246 10.9105V1.87842C122.246 1.17274 122.818 0.600672 123.523 0.600672C124.229 0.600672 124.801 1.17274 124.801 1.87842V11.0269Z" fill="#647B64"/>
<path d="M127.841 1.87842C127.841 1.17274 128.413 0.600672 129.118 0.600672C129.824 0.600672 130.396 1.17274 130.396 1.87842V15.8C130.396 16.5057 129.824 17.0778 129.118 17.0778C128.413 17.0778 127.841 16.5057 127.841 15.8V1.87842Z" fill="#647B64"/>
</svg>
