<svg width="32" height="32" viewBox="0 0 32 32" fill="none" xmlns="http://www.w3.org/2000/svg">
<path d="M7.78088 5.46001C8.44088 5.46001 9.62488 5.66401 9.62488 7.28901C9.62488 8.91401 8.45288 9.53901 7.78088 9.53901C7.10888 9.53901 6.07788 8.90101 6.07788 7.28901C6.07788 5.67601 7.21088 5.46001 7.78088 5.46001ZM4.15588 7.50001C4.81588 7.50001 5.99988 7.70301 5.99988 9.32801C5.99988 10.953 4.82788 11.578 4.15588 11.578C3.48388 11.578 2.45288 10.941 2.45288 9.32801C2.45288 7.71601 3.58588 7.50001 4.15588 7.50001ZM13.9999 7.28901C13.9999 5.66401 12.8159 5.46101 12.1559 5.46101C11.5859 5.46101 10.4529 5.67601 10.4529 7.28901C10.4529 8.90101 11.4839 9.53901 12.1559 9.53901C12.8279 9.53901 13.9999 8.91401 13.9999 7.28901ZM15.7029 7.50001C16.3629 7.50001 17.5469 7.70301 17.5469 9.32801C17.5469 10.953 16.3749 11.578 15.7029 11.578C15.0309 11.578 13.9999 10.941 13.9999 9.32801C13.9999 7.71601 15.1329 7.50001 15.7029 7.50001ZM14.9839 15.469C14.9839 12.547 13.0939 10.016 9.99988 10.016C6.90588 10.016 5.04688 12.484 5.04688 15.469C5.04688 17.953 8.00788 17.953 9.99288 17.953H9.99988C12.2029 17.953 14.9839 17.875 14.9839 15.469ZM16.1559 19.547C16.8159 19.547 17.9999 19.75 17.9999 21.375C17.9999 23 16.8279 23.625 16.1559 23.625C15.4839 23.625 14.4529 22.987 14.4529 21.375C14.4529 19.762 15.5859 19.547 16.1559 19.547ZM21.6249 19.336C21.6249 17.711 20.4409 17.508 19.7809 17.508C19.2109 17.508 18.0779 17.723 18.0779 19.336C18.0779 20.948 19.1089 21.586 19.7809 21.586C20.4529 21.586 21.6249 20.961 21.6249 19.336ZM24.1559 17.508C24.8159 17.508 25.9999 17.711 25.9999 19.336C25.9999 20.961 24.8279 21.586 24.1559 21.586C23.4839 21.586 22.4529 20.948 22.4529 19.336C22.4529 17.723 23.5859 17.508 24.1559 17.508ZM29.5469 21.375C29.5469 19.75 28.3629 19.547 27.7029 19.547C27.1329 19.547 25.9999 19.762 25.9999 21.375C25.9999 22.987 27.0309 23.625 27.7029 23.625C28.3749 23.625 29.5469 23 29.5469 21.375ZM21.9999 22.063C25.0939 22.063 26.9839 24.593 26.9839 27.516C26.9839 29.922 24.2039 30 21.9999 30H21.9919C20.0079 30 17.0469 30 17.0469 27.516C17.0469 24.531 18.9069 22.063 21.9999 22.063Z" fill="white"/>
</svg>
